<svg width="25" height="18" viewBox="0 0 25 18" fill="none" xmlns="http://www.w3.org/2000/svg">
<path d="M24.3536 4.35356C24.5488 4.15829 24.5488 3.84171 24.3536 3.64645L21.1716 0.464468C20.9763 0.269206 20.6597 0.269206 20.4645 0.464468C20.2692 0.65973 20.2692 0.976312 20.4645 1.17157L23.2929 4L20.4645 6.82843C20.2692 7.02369 20.2692 7.34027 20.4645 7.53554C20.6597 7.7308 20.9763 7.7308 21.1716 7.53554L24.3536 4.35356ZM1 4.5L24 4.5L24 3.5L1 3.5L1 4.5Z" fill="white"/>
<path d="M0.646446 14.3536C0.451185 14.1583 0.451185 13.8417 0.646446 13.6464L3.82843 10.4645C4.02369 10.2692 4.34027 10.2692 4.53553 10.4645C4.7308 10.6597 4.7308 10.9763 4.53553 11.1716L1.70711 14L4.53553 16.8284C4.7308 17.0237 4.7308 17.3403 4.53553 17.5355C4.34027 17.7308 4.02369 17.7308 3.82843 17.5355L0.646446 14.3536ZM24 14.5L1 14.5L1 13.5L24 13.5L24 14.5Z" fill="white"/>
</svg>
