<svg width="26" height="26" viewBox="0 0 26 26" fill="none" xmlns="http://www.w3.org/2000/svg">
<path d="M13.039 0.140886V0.153694C13.0518 0.217734 13.0518 0.294581 13.0518 0.371428V9.60591C13.039 9.65714 13.0005 9.66995 12.9621 9.69557C12.6931 9.82365 12.437 9.93892 12.168 10.0542C11.7966 10.2207 11.4124 10.4 11.0409 10.5665L9.6961 11.1813C9.32467 11.3478 8.95324 11.5143 8.59462 11.6808C8.15915 11.8857 7.71088 12.0778 7.27541 12.2828C6.90398 12.4493 6.53255 12.6286 6.14832 12.7951C5.84093 12.936 5.53354 13.064 5.23896 13.2049C5.21334 13.2177 5.18773 13.2305 5.16211 13.2305C5.1493 13.2305 5.1493 13.2305 5.13649 13.2177L5.48231 12.6414C6.14832 11.5399 6.80152 10.4512 7.46753 9.34975C8.17196 8.17143 8.8892 6.9931 9.59364 5.81478C10.2468 4.72611 10.9128 3.63744 11.5661 2.54877C12.0399 1.75468 12.5266 0.960591 13.0005 0.166502C13.0133 0.140886 13.0261 0.128079 13.0261 0.102463H13.039C13.0261 0.115271 13.039 0.128079 13.039 0.140886Z" fill="#8A92B2"/>
<path d="M20.9025 13.2177L20.9153 13.2306L19.0325 14.3448L13.1153 17.8414C13.0897 17.8542 13.064 17.867 13.0512 17.8798C13.0128 17.8798 13.0128 17.8414 13.0128 17.8286V17.7133V9.79804C13.0128 9.75962 13.0128 9.70838 13.0256 9.66996C13.0384 9.61873 13.0768 9.63154 13.1153 9.64434C13.2818 9.72119 13.4611 9.79804 13.6276 9.87489C14.1271 10.1054 14.6266 10.336 15.1261 10.5537C15.5616 10.7458 15.9842 10.9507 16.4197 11.1429C16.8552 11.335 17.2906 11.5399 17.7261 11.732C18.0975 11.8985 18.4818 12.0778 18.8532 12.2443C19.2246 12.4108 19.6089 12.5902 19.9803 12.7567C20.2749 12.8847 20.5695 13.0256 20.864 13.1537C20.864 13.1921 20.8768 13.2049 20.9025 13.2177Z" fill="#454A75"/>
<path d="M13.0384 25.8335C13.0384 25.8463 13.0256 25.8591 13.0256 25.8719H13.0128C13.0128 25.8463 12.9872 25.8335 12.9744 25.8079C12.1803 24.6936 11.3862 23.5665 10.5921 22.4522C9.78522 21.3123 8.96552 20.1596 8.15862 19.0197C7.37734 17.9182 6.58325 16.8039 5.80197 15.7025C5.59704 15.4079 5.39212 15.1261 5.18719 14.8315C5.17438 14.8059 5.16158 14.7931 5.13596 14.7547C5.17438 14.7547 5.2 14.7803 5.21281 14.7931C6.32709 15.4463 7.42857 16.0995 8.54286 16.7527C9.82364 17.5084 11.0916 18.264 12.3724 19.0197L13.0256 19.4039C13.0512 19.4296 13.0512 19.4552 13.0512 19.4808V25.6542C13.0512 25.7182 13.0512 25.7823 13.0384 25.8335Z" fill="#8A92B2"/>
<path d="M5.12315 13.2434V13.2305C5.533 13.0512 5.93005 12.8591 6.3399 12.6798C6.86502 12.4365 7.39015 12.2059 7.91527 11.9626C8.31231 11.7833 8.72217 11.5911 9.11921 11.4118C9.70837 11.1429 10.2847 10.8867 10.8739 10.6177C11.2709 10.4384 11.668 10.2591 12.0778 10.067C12.3596 9.93892 12.6542 9.81084 12.936 9.68276C12.9616 9.66995 13 9.65715 13.0128 9.63153C13.0256 9.63153 13.0256 9.64434 13.0128 9.65715V17.7902C13.0128 17.8286 13 17.867 13.0256 17.8926C13 17.931 12.9744 17.8926 12.9616 17.8798C12.8463 17.8158 12.731 17.7517 12.6158 17.6749C10.1438 16.2148 7.65911 14.7419 5.18719 13.2818C5.17438 13.269 5.14877 13.2562 5.12315 13.2434Z" fill="#62688F"/>
<path d="M20.8768 14.7547H20.8897C20.8897 14.7803 20.864 14.8059 20.8512 14.8315C18.4946 18.1488 16.1379 21.4788 13.7813 24.7961C13.5379 25.1419 13.2818 25.4877 13.0384 25.8335C13.0256 25.8207 13.0256 25.8079 13.0256 25.7951V25.7182V19.5064V19.3911C13.5635 19.0709 14.0887 18.7636 14.6266 18.4434C16.7015 17.2138 18.7764 15.997 20.8384 14.7675C20.8512 14.7803 20.864 14.7675 20.8768 14.7547Z" fill="#62688F"/>
<path d="M13.0256 9.65714V9.63152V9.55467V0.25615C13.0256 0.217726 13.0128 0.19211 13.0384 0.153687C15.6384 4.46994 18.2384 8.77339 20.8256 13.0896C20.8512 13.1281 20.8897 13.1793 20.9025 13.2305C20.7232 13.1665 20.5567 13.0768 20.3901 13C20.1852 12.9103 19.9675 12.8079 19.7626 12.7182C19.6345 12.6542 19.4936 12.6029 19.3655 12.5389C19.1478 12.4364 18.93 12.3468 18.7123 12.2443C18.5842 12.1931 18.4562 12.1291 18.3281 12.065L17.4828 11.6808C17.3419 11.6167 17.201 11.5527 17.0473 11.4887L16.4325 11.2197C16.3044 11.1685 16.1764 11.1044 16.0483 11.0404L15.203 10.6562C15.0621 10.5921 14.9212 10.5281 14.7675 10.464L14.1527 10.1951C14.0118 10.131 13.8837 10.067 13.7429 10.0029C13.4995 9.88768 13.2562 9.77241 13 9.66994C13.0384 9.65714 13.0256 9.65714 13.0256 9.65714Z" fill="#62688F"/>
</svg>
